<svg width="42" height="42" viewBox="0 0 42 42" fill="none" xmlns="http://www.w3.org/2000/svg">
<path d="M41 40.928C25.379 40.928 16.621 40.928 1 40.928V0.92798H41V40.928Z" stroke="#303030"/>
<path d="M7.78809 23.059H10.5339C10.5339 25.4753 12.3131 26.4199 14.5098 26.4199C16.9261 26.4199 17.8267 25.2337 17.8267 24.0475C17.8267 22.8393 17.1677 22.3561 16.5307 22.1145C15.4324 21.6971 14.0046 21.4115 11.8519 20.8184C9.17196 20.0936 8.38118 18.468 8.38118 16.8425C8.38118 13.7014 11.2807 12.2296 14.1144 12.2296C17.3874 12.2296 20.1332 13.965 20.1332 17.2379H17.3874C17.2556 15.217 15.8937 14.4702 14.0046 14.4702C12.7305 14.4702 11.127 14.9315 11.127 16.513C11.127 17.6114 11.8738 18.2264 12.9941 18.5339C13.2357 18.5998 16.7064 19.5005 17.5192 19.7421C19.584 20.3571 20.5725 22.1145 20.5725 23.74C20.5725 27.2546 17.4533 28.6604 14.334 28.6604C10.7535 28.6604 7.85398 26.947 7.78809 23.059Z" fill="#303030"/>
<path d="M24.1406 22.7295C24.1406 24.6845 25.1071 26.6175 27.2818 26.6175C29.5224 26.6175 30.4669 24.5747 30.4669 22.5977C30.4669 20.0936 29.2588 18.5998 27.3257 18.5998C24.9754 18.5998 24.1406 20.6866 24.1406 22.7295ZM32.8832 12.603V28.287H30.5109V26.7493H30.4669C29.8079 28.0454 28.3801 28.5945 26.9523 28.5945C23.3718 28.5945 21.6365 25.9366 21.6365 22.5318C21.6365 18.4241 24.0747 16.6229 26.5569 16.6229C27.9847 16.6229 29.5663 17.1501 30.3351 18.4021H30.3791V12.603H32.8832Z" fill="#303030"/>
</svg>
